<?xml version="1.0" standalone="no"?>
<!DOCTYPE svg PUBLIC "-//W3C//DTD SVG 20010904//EN"
 "http://www.w3.org/TR/2001/REC-SVG-20010904/DTD/svg10.dtd">
<svg version="1.0" xmlns="http://www.w3.org/2000/svg"
 width="415.000000pt" height="415.000000pt" viewBox="0 0 415.000000 415.000000"
 preserveAspectRatio="xMidYMid meet">
<metadata>
Created by potrace 1.11, written by Peter Selinger 2001-2013
</metadata>
<g transform="translate(0.000000,415.000000) scale(0.100000,-0.100000)"
fill="#000000" stroke="none">
<path d="M1938 3235 c-2 -1 -52 -5 -113 -9 -60 -3 -126 -8 -145 -11 -19 -2
-57 -7 -85 -10 -355 -39 -749 -125 -845 -183 -79 -48 -65 -116 27 -136 34 -8
67 -36 42 -36 -11 0 -11 -2 1 -10 8 -5 10 -10 3 -10 -6 0 -9 -8 -6 -19 2 -10
-2 -25 -11 -33 -8 -9 -13 -18 -10 -20 2 -3 0 -18 -6 -34 -6 -16 -10 -29 -9
-29 4 0 -62 -125 -74 -140 -4 -5 -39 -59 -78 -120 -79 -124 -122 -174 -150
-176 -10 -1 -22 -2 -26 -3 -5 -1 -23 -6 -41 -10 -63 -15 -67 -61 -12 -135 41
-55 44 -70 22 -124 -7 -16 -12 -33 -12 -38 0 -6 -5 -7 -12 -3 -6 4 -8 3 -5 -3
6 -10 -4 -42 -33 -108 -4 -11 -21 -54 -35 -95 -15 -41 -33 -88 -41 -105 -16
-37 -56 -160 -79 -240 -9 -33 -23 -75 -31 -93 -12 -29 -12 -36 1 -56 16 -24
48 -40 74 -36 8 1 10 -3 5 -11 -4 -7 -3 -10 3 -6 6 4 30 9 54 11 24 3 59 10
77 15 17 5 32 7 32 3 0 -4 4 -2 8 5 4 6 19 13 32 15 14 2 30 6 35 10 19 12
150 60 175 64 14 2 43 9 65 14 22 6 51 12 65 14 14 3 25 5 25 6 0 1 9 3 20 4
34 5 134 22 175 31 14 3 47 8 74 10 27 3 51 7 55 9 3 2 35 7 70 11 35 3 78 8
95 11 17 2 69 7 116 10 47 3 101 7 120 9 19 1 43 -2 54 -7 13 -7 16 -7 12 1
-5 8 27 10 108 7 108 -4 116 -3 122 16 10 32 -5 87 -27 98 -30 16 -369 10
-544 -11 -224 -26 -259 -30 -275 -34 -8 -2 -35 -6 -60 -9 -25 -3 -54 -8 -65
-10 -11 -3 -85 -19 -165 -36 -80 -17 -153 -33 -163 -35 -9 -2 -20 -6 -25 -8
-8 -6 -77 -19 -107 -21 -11 0 -22 -3 -25 -6 -8 -8 -81 -32 -85 -28 -7 7 7 48
14 43 4 -2 7 6 6 18 -2 20 15 71 48 147 6 14 11 30 13 36 6 34 17 54 25 49 5
-3 6 1 3 9 -3 9 -1 16 6 16 6 0 9 4 6 9 -9 14 5 42 17 34 6 -4 7 -1 3 6 -10
15 13 73 25 65 5 -3 6 3 2 12 -5 13 -3 15 7 9 9 -5 11 -4 6 3 -7 12 21 82 37
93 5 3 8 9 7 13 -3 12 25 66 33 66 5 0 5 5 2 10 -3 6 -1 10 4 10 6 0 10 3 9 8
-1 4 8 25 19 48 21 39 55 70 85 76 7 2 19 9 27 16 7 7 19 11 26 8 8 -3 16 2
19 10 3 8 14 14 25 14 11 0 23 5 26 11 4 6 13 8 20 5 8 -3 15 0 17 6 2 6 18
11 35 12 17 0 29 4 28 7 -4 5 154 49 195 55 8 1 26 5 40 9 54 14 216 36 233
31 9 -2 15 0 11 5 -3 5 7 9 23 10 15 0 42 2 58 4 17 2 53 7 80 10 28 3 79 10
115 15 36 6 76 12 90 14 18 2 25 9 25 26 0 51 -91 81 -221 74 -115 -6 -173
-17 -484 -94 -268 -67 -325 -76 -316 -53 3 8 6 19 6 25 0 6 7 7 16 4 9 -3 12
-2 8 5 -7 12 25 89 38 89 4 0 7 4 5 8 -1 4 9 32 22 60 18 37 27 49 34 40 6 -9
7 -7 3 6 -5 15 42 117 63 136 3 3 7 10 8 17 4 19 70 115 118 173 96 113 170
147 410 186 22 3 180 8 350 9 171 2 348 5 395 6 87 2 173 -8 166 -19 -5 -8 60
-13 91 -6 12 2 25 16 31 33 19 54 -35 94 -158 116 -35 7 -416 16 -422 10z"/>
<path d="M3085 3196 c-14 -15 -33 -43 -42 -64 -8 -20 -21 -52 -29 -69 -8 -18
-20 -48 -28 -65 -8 -18 -23 -53 -34 -78 -11 -25 -35 -81 -55 -125 -19 -44 -49
-111 -67 -150 -34 -74 -313 -635 -359 -720 -15 -27 -61 -115 -103 -195 -42
-80 -92 -172 -112 -204 -75 -125 -102 -240 -65 -285 10 -13 19 -19 19 -15 0 5
6 2 13 -6 15 -18 27 -22 92 -26 46 -4 91 -4 351 0 51 0 90 4 87 8 -2 5 6 7 19
7 31 -2 157 12 368 42 41 6 89 12 105 14 17 3 44 7 60 9 17 3 50 7 75 11 40 5
121 19 175 29 26 5 124 19 150 22 67 6 141 17 148 21 4 2 7 -1 7 -7 0 -7 6 -8
18 -2 9 5 34 8 55 7 26 -2 40 2 46 13 11 19 -5 58 -28 68 -23 10 -261 12 -356
3 -105 -9 -199 -21 -205 -24 -3 -2 -30 -6 -60 -10 -30 -3 -62 -8 -70 -10 -8
-2 -40 -7 -70 -10 -30 -4 -57 -8 -60 -10 -3 -2 -33 -7 -65 -10 -33 -4 -67 -9
-76 -10 -17 -3 -108 -16 -149 -20 -14 -2 -50 -6 -80 -10 -64 -8 -296 -13 -357
-7 l-41 4 2 51 c2 52 24 137 35 137 3 0 7 11 7 25 2 34 148 321 162 318 7 -2
9 4 5 14 -5 12 -3 14 7 8 8 -5 11 -4 6 3 -8 14 28 74 39 64 5 -4 5 -2 1 5 -5
10 44 109 63 123 3 3 7 12 9 20 2 8 8 17 13 18 5 2 9 10 9 17 0 8 6 20 13 27
6 7 25 38 41 68 52 96 102 170 111 163 4 -5 5 -3 1 4 -6 11 17 70 33 83 3 3
15 23 26 45 11 22 25 43 30 47 6 4 11 12 11 18 1 5 2 15 3 21 0 5 6 7 11 4 6
-4 9 -3 8 2 -4 15 21 73 32 73 6 0 9 4 5 10 -6 9 13 50 28 61 5 3 8 9 7 13 -4
14 23 66 31 60 5 -3 6 3 2 12 -5 13 -3 15 7 9 9 -5 11 -4 6 3 -4 6 5 46 19 89
41 124 42 126 40 177 -3 50 -29 98 -58 104 -9 2 -28 -8 -42 -22z"/>
<path d="M2226 3072 c-3 -5 1 -9 9 -9 8 0 12 4 9 9 -3 4 -7 8 -9 8 -2 0 -6 -4
-9 -8z"/>
<path d="M2094 3012 c4 -3 14 -7 22 -8 9 -1 13 0 10 4 -4 3 -14 7 -22 8 -9 1
-13 0 -10 -4z"/>
<path d="M2155 3010 c-3 -5 -1 -10 4 -10 6 0 11 5 11 10 0 6 -2 10 -4 10 -3 0
-8 -4 -11 -10z"/>
<path d="M2250 2996 c0 -2 7 -7 16 -10 8 -3 12 -2 9 4 -6 10 -25 14 -25 6z"/>
<path d="M1913 2965 c0 -8 4 -12 9 -9 5 3 6 10 3 15 -9 13 -12 11 -12 -6z"/>
<path d="M1350 2950 c0 -5 5 -10 11 -10 5 0 7 5 4 10 -3 6 -8 10 -11 10 -2 0
-4 -4 -4 -10z"/>
<path d="M1986 2948 c3 -5 10 -6 15 -3 13 9 11 12 -6 12 -8 0 -12 -4 -9 -9z"/>
<path d="M2150 2956 c0 -2 7 -7 16 -10 8 -3 12 -2 9 4 -6 10 -25 14 -25 6z"/>
<path d="M1785 2910 c-3 -6 1 -7 9 -4 18 7 21 14 7 14 -6 0 -13 -4 -16 -10z"/>
<path d="M1050 2829 c0 -5 5 -7 10 -4 6 3 10 8 10 11 0 2 -4 4 -10 4 -5 0 -10
-5 -10 -11z"/>
<path d="M1019 2818 c-5 -18 -6 -38 -1 -34 7 8 12 36 6 36 -2 0 -4 -1 -5 -2z"/>
<path d="M1056 2772 c-3 -4 4 -9 15 -9 23 -2 25 3 4 10 -8 4 -16 3 -19 -1z"/>
<path d="M959 2683 c-13 -17 -13 -17 6 -3 11 8 22 16 24 17 2 2 0 3 -6 3 -6 0
-17 -8 -24 -17z"/>
<path d="M916 2632 c-3 -5 1 -9 9 -9 8 0 12 4 9 9 -3 4 -7 8 -9 8 -2 0 -6 -4
-9 -8z"/>
<path d="M2970 2530 c0 -5 5 -10 11 -10 5 0 7 5 4 10 -3 6 -8 10 -11 10 -2 0
-4 -4 -4 -10z"/>
<path d="M2920 2450 c-12 -7 -10 -9 7 -7 12 0 19 5 17 9 -6 10 -6 10 -24 -2z"/>
<path d="M2830 2249 c0 -5 5 -7 10 -4 6 3 10 8 10 11 0 2 -4 4 -10 4 -5 0 -10
-5 -10 -11z"/>
<path d="M779 2138 c-5 -18 -6 -38 -1 -34 7 8 12 36 6 36 -2 0 -4 -1 -5 -2z"/>
<path d="M715 2120 c-4 -6 -10 -8 -15 -5 -5 3 -11 1 -14 -4 -8 -13 22 -7 36 7
7 7 9 12 6 12 -4 0 -10 -5 -13 -10z"/>
<path d="M825 2110 c-3 -6 1 -7 9 -4 18 7 21 14 7 14 -6 0 -13 -4 -16 -10z"/>
<path d="M633 2055 c0 -8 4 -12 9 -9 5 3 6 10 3 15 -9 13 -12 11 -12 -6z"/>
<path d="M665 2010 c-3 -6 1 -7 9 -4 18 7 21 14 7 14 -6 0 -13 -4 -16 -10z"/>
<path d="M535 1889 c-3 -4 2 -6 10 -5 21 3 28 13 10 13 -9 0 -18 -4 -20 -8z"/>
<path d="M1216 1352 c-3 -5 1 -9 9 -9 8 0 12 4 9 9 -3 4 -7 8 -9 8 -2 0 -6 -4
-9 -8z"/>
<path d="M1395 1310 c-3 -5 -1 -10 4 -10 6 0 11 5 11 10 0 6 -2 10 -4 10 -3 0
-8 -4 -11 -10z"/>
<path d="M590 1270 c0 -5 5 -10 11 -10 5 0 7 5 4 10 -3 6 -8 10 -11 10 -2 0
-4 -4 -4 -10z"/>
<path d="M686 1228 c3 -5 10 -6 15 -3 13 9 11 12 -6 12 -8 0 -12 -4 -9 -9z"/>
<path d="M845 1230 c-3 -6 1 -7 9 -4 18 7 21 14 7 14 -6 0 -13 -4 -16 -10z"/>
<path d="M510 1209 c0 -5 5 -7 10 -4 6 3 10 8 10 11 0 2 -4 4 -10 4 -5 0 -10
-5 -10 -11z"/>
<path d="M586 1188 c3 -5 10 -6 15 -3 13 9 11 12 -6 12 -8 0 -12 -4 -9 -9z"/>
<path d="M676 1188 c3 -5 10 -6 15 -3 13 9 11 12 -6 12 -8 0 -12 -4 -9 -9z"/>
<path d="M535 1181 c-3 -5 -2 -12 3 -15 5 -3 9 1 9 9 0 17 -3 19 -12 6z"/>
<path d="M259 1178 c-5 -18 -6 -38 -1 -34 7 8 12 36 6 36 -2 0 -4 -1 -5 -2z"/>
<path d="M435 1169 c-3 -4 2 -6 10 -5 21 3 28 13 10 13 -9 0 -18 -4 -20 -8z"/>
<path d="M2330 1169 c0 -5 5 -7 10 -4 6 3 10 8 10 11 0 2 -4 4 -10 4 -5 0 -10
-5 -10 -11z"/>
<path d="M3075 1150 c-3 -5 -1 -10 4 -10 6 0 11 5 11 10 0 6 -2 10 -4 10 -3 0
-8 -4 -11 -10z"/>
<path d="M2435 1139 c-4 -6 -5 -12 -2 -15 2 -3 7 2 10 11 7 17 1 20 -8 4z"/>
<path d="M375 1130 c3 -5 8 -10 11 -10 2 0 4 5 4 10 0 6 -5 10 -11 10 -5 0 -7
-4 -4 -10z"/>
<path d="M2250 1129 c0 -5 5 -7 10 -4 6 3 10 8 10 11 0 2 -4 4 -10 4 -5 0 -10
-5 -10 -11z"/>
<path d="M2330 1130 c0 -5 5 -10 11 -10 5 0 7 5 4 10 -3 6 -8 10 -11 10 -2 0
-4 -4 -4 -10z"/>
<path d="M2366 1128 c3 -5 10 -6 15 -3 13 9 11 12 -6 12 -8 0 -12 -4 -9 -9z"/>
<path d="M273 1085 c0 -8 4 -12 9 -9 5 3 6 10 3 15 -9 13 -12 11 -12 -6z"/>
<path d="M355 1091 c-3 -5 -2 -12 3 -15 5 -3 9 1 9 9 0 17 -3 19 -12 6z"/>
<path d="M2275 1090 c-3 -5 -1 -10 4 -10 6 0 11 5 11 10 0 6 -2 10 -4 10 -3 0
-8 -4 -11 -10z"/>
<path d="M2335 1089 c-3 -4 2 -6 10 -5 21 3 28 13 10 13 -9 0 -18 -4 -20 -8z"/>
<path d="M2753 1065 c0 -8 4 -12 9 -9 5 3 6 10 3 15 -9 13 -12 11 -12 -6z"/>
<path d="M2835 1070 c-3 -5 -1 -10 4 -10 6 0 11 5 11 10 0 6 -2 10 -4 10 -3 0
-8 -4 -11 -10z"/>
<path d="M2956 1068 c3 -5 10 -6 15 -3 13 9 11 12 -6 12 -8 0 -12 -4 -9 -9z"/>
</g>
</svg>
